{"accessors" : [{"bufferView" : 0, "byteOffset" : 0, "componentType" : 5123, "count" : 11526, "type" : "SCALAR", "max" : [11525], "min" : [0]}, {"bufferView" : 1, "byteOffset" : 0, "componentType" : 5126, "count" : 11526, "type" : "VEC3", "max" : [2.1402196884155273, 1.5686804056167603, 1.0531977415084839], "min" : [-1.9905272722244263, 0.15677833557128906, -1.0531970262527466], "name" : "POSITION"}, {"bufferView" : 1, "byteOffset" : 12, "componentType" : 5126, "count" : 11526, "type" : "VEC3", "max" : [1.0000044107437134, 1.0000044107437134, 1.0000044107437134], "min" : [-1.0000044107437134, -1.0000044107437134, -1.0000044107437134], "name" : "NORMAL"}, {"bufferView" : 1, "byteOffset" : 24, "componentType" : 5126, "count" : 11526, "type" : "VEC2", "max" : [0.9899671673774719, -0.03778664767742157], "min" : [0.06482362747192383, -0.9664041996002197], "name" : "TEXCOORD_0"}, {"bufferView" : 0, "byteOffset" : 23052, "componentType" : 5123, "count" : 1038, "type" : "SCALAR", "max" : [1037], "min" : [0]}, {"bufferView" : 2, "byteOffset" : 0, "componentType" : 5126, "count" : 1038, "type" : "VEC3", "max" : [-0.9272288680076599, 0.6635125875473022, 0.9045068025588989], "min" : [-1.5907413959503174, 3.0249491800304895E-08, 0.6478517055511475], "name" : "POSITION"}, {"bufferView" : 2, "byteOffset" : 12, "componentType" : 5126, "count" : 1038, "type" : "VEC3", "max" : [1.0000044107437134, 1.0000044107437134, 1.0000044107437134], "min" : [-1.0000044107437134, -1.0000044107437134, -1.0000044107437134], "name" : "NORMAL"}, {"bufferView" : 2, "byteOffset" : 24, "componentType" : 5126, "count" : 1038, "type" : "VEC2", "max" : [0.2513294816017151, -0.320486843585968], "min" : [0.08940821886062622, -0.9512444138526917], "name" : "TEXCOORD_0"}, {"bufferView" : 0, "byteOffset" : 25128, "componentType" : 5123, "count" : 1038, "type" : "SCALAR", "max" : [1037], "min" : [0]}, {"bufferView" : 3, "byteOffset" : 0, "componentType" : 5126, "count" : 1038, "type" : "VEC3", "max" : [1.5907424688339233, 0.6635125875473022, 0.9045051336288452], "min" : [0.9272298812866211, 3.024941719331764E-08, 0.6478500366210938], "name" : "POSITION"}, {"bufferView" : 3, "byteOffset" : 12, "componentType" : 5126, "count" : 1038, "type" : "VEC3", "max" : [1.0000044107437134, 1.0000044107437134, 1.0000044107437134], "min" : [-1.0000044107437134, -1.0000044107437134, -1.0000044107437134], "name" : "NORMAL"}, {"bufferView" : 3, "byteOffset" : 24, "componentType" : 5126, "count" : 1038, "type" : "VEC2", "max" : [0.24727147817611694, -0.320486843585968], "min" : [0.082797110080719, -0.9504964351654053], "name" : "TEXCOORD_0"}, {"bufferView" : 0, "byteOffset" : 27204, "componentType" : 5123, "count" : 1038, "type" : "SCALAR", "max" : [1037], "min" : [0]}, {"bufferView" : 4, "byteOffset" : 0, "componentType" : 5126, "count" : 1038, "type" : "VEC3", "max" : [1.5907413959503174, 0.6635124683380127, -0.6478516459465027], "min" : [0.9272288680076599, -3.749521582108173E-08, -0.9045068025588989], "name" : "POSITION"}, {"bufferView" : 4, "byteOffset" : 12, "componentType" : 5126, "count" : 1038, "type" : "VEC3", "max" : [1.0000044107437134, 1.0000044107437134, 1.0000044107437134], "min" : [-1.0000044107437134, -1.0000044107437134, -1.0000044107437134], "name" : "NORMAL"}, {"bufferView" : 4, "byteOffset" : 24, "componentType" : 5126, "count" : 1038, "type" : "VEC2", "max" : [0.24727147817611694, -0.320486843585968], "min" : [0.082797110080719, -0.9504964351654053], "name" : "TEXCOORD_0"}, {"bufferView" : 0, "byteOffset" : 29280, "componentType" : 5123, "count" : 1038, "type" : "SCALAR", "max" : [1037], "min" : [0]}, {"bufferView" : 5, "byteOffset" : 0, "componentType" : 5126, "count" : 1038, "type" : "VEC3", "max" : [-0.9272298812866211, 0.6635124683380127, -0.647849977016449], "min" : [-1.5907424688339233, -3.749514476680815E-08, -0.9045051336288452], "name" : "POSITION"}, {"bufferView" : 5, "byteOffset" : 12, "componentType" : 5126, "count" : 1038, "type" : "VEC3", "max" : [1.0000044107437134, 1.0000044107437134, 1.0000044107437134], "min" : [-1.0000044107437134, -1.0000044107437134, -1.0000044107437134], "name" : "NORMAL"}, {"bufferView" : 5, "byteOffset" : 24, "componentType" : 5126, "count" : 1038, "type" : "VEC2", "max" : [0.2513294816017151, -0.320486843585968], "min" : [0.08940821886062622, -0.9512444138526917], "name" : "TEXCOORD_0"}], "asset" : {"generator" : "Aspose.3D 21.5.2", "version" : "2.0"}, "buffers" : [{"uri" : "data:application/octet-stream;base64,", "byteLength" : 533076}], "bufferViews" : [{"buffer" : 0, "byteOffset" : 0, "byteLength" : 31356, "target" : 34963}, {"buffer" : 0, "byteOffset" : 31360, "byteLength" : 368832, "byteStride" : 32, "target" : 34962}, {"buffer" : 0, "byteOffset" : 400196, "byteLength" : 33216, "byteStride" : 32, "target" : 34962}, {"buffer" : 0, "byteOffset" : 433416, "byteLength" : 33216, "byteStride" : 32, "target" : 34962}, {"buffer" : 0, "byteOffset" : 466636, "byteLength" : 33216, "byteStride" : 32, "target" : 34962}, {"buffer" : 0, "byteOffset" : 499856, "byteLength" : 33216, "byteStride" : 32, "target" : 34962}], "materials" : [{"pbrMetallicRoughness" : {"baseColorFactor" : [0.8, 0.8, 0.8, 1], "metallicFactor" : 0, "roughnessFactor" : 0}, "emissiveFactor" : [0, 0, 0], "alphaMode" : "OPAQUE", "doubleSided" : false}, {"pbrMetallicRoughness" : {"baseColorFactor" : [0.8, 0.8, 0.8, 1], "metallicFactor" : 0, "roughnessFactor" : 0}, "emissiveFactor" : [0, 0, 0], "alphaMode" : "OPAQUE", "doubleSided" : false}, {"pbrMetallicRoughness" : {"baseColorFactor" : [0.8, 0.8, 0.8, 1], "metallicFactor" : 0, "roughnessFactor" : 0}, "emissiveFactor" : [0, 0, 0], "alphaMode" : "OPAQUE", "doubleSided" : false}, {"pbrMetallicRoughness" : {"baseColorFactor" : [0.8, 0.8, 0.8, 1], "metallicFactor" : 0, "roughnessFactor" : 0}, "emissiveFactor" : [0, 0, 0], "alphaMode" : "OPAQUE", "doubleSided" : false}, {"pbrMetallicRoughness" : {"baseColorFactor" : [0.8, 0.8, 0.8, 1], "metallicFactor" : 0, "roughnessFactor" : 0}, "emissiveFactor" : [0, 0, 0], "alphaMode" : "OPAQUE", "doubleSided" : false}], "meshes" : [{"primitives" : [{"attributes" : {"POSITION" : 1, "NORMAL" : 2, "TEXCOORD_0" : 3}, "indices" : 0, "material" : 0, "mode" : 4}]}, {"primitives" : [{"attributes" : {"POSITION" : 5, "NORMAL" : 6, "TEXCOORD_0" : 7}, "indices" : 4, "material" : 1, "mode" : 4}]}, {"primitives" : [{"attributes" : {"POSITION" : 9, "NORMAL" : 10, "TEXCOORD_0" : 11}, "indices" : 8, "material" : 2, "mode" : 4}]}, {"primitives" : [{"attributes" : {"POSITION" : 13, "NORMAL" : 14, "TEXCOORD_0" : 15}, "indices" : 12, "material" : 3, "mode" : 4}]}, {"primitives" : [{"attributes" : {"POSITION" : 17, "NORMAL" : 18, "TEXCOORD_0" : 19}, "indices" : 16, "material" : 4, "mode" : 4}]}], "nodes" : [{"matrix" : [1, 0, 0, 0, 0, -1.6292067961387602E-07, -0.9999999999999868, 0, 0, 0.9999999999999868, -1.6292067961387602E-07, 0, 0, 0, 0, 1], "mesh" : 0, "name" : "car9"}, {"matrix" : [1, 0, 0, 0, 0, -1.6292067961387602E-07, -0.9999999999999868, 0, 0, 0.9999999999999868, -1.6292067961387602E-07, 0, 0, 0, 0, 1], "mesh" : 1, "name" : "whell.007"}, {"matrix" : [1, 0, 0, 0, 0, -1.6292067961387602E-07, -0.9999999999999868, 0, 0, 0.9999999999999868, -1.6292067961387602E-07, 0, 0, 0, 0, 1], "mesh" : 2, "name" : "whell.006"}, {"matrix" : [1, 0, 0, 0, 0, -1.6292067961387602E-07, -0.9999999999999868, 0, 0, 0.9999999999999868, -1.6292067961387602E-07, 0, 0, 0, 0, 1], "mesh" : 3, "name" : "whell.005"}, {"matrix" : [1, 0, 0, 0, 0, -1.6292067961387602E-07, -0.9999999999999868, 0, 0, 0.9999999999999868, -1.6292067961387602E-07, 0, 0, 0, 0, 1], "mesh" : 4, "name" : "whell.004"}], "scene" : 0, "scenes" : [{"nodes" : [0, 1, 2, 3, 4]}]}