{"accessors" : [{"bufferView" : 0, "byteOffset" : 0, "componentType" : 5123, "count" : 1356, "type" : "SCALAR", "max" : [1229], "min" : [0]}, {"bufferView" : 1, "byteOffset" : 0, "componentType" : 5126, "count" : 1230, "type" : "VEC3", "max" : [1.6575080156326294, 5.960533142089844, 1.049507975578308], "min" : [-1.8098219633102417, 0, -1.1886359453201294], "name" : "POSITION"}, {"bufferView" : 1, "byteOffset" : 12, "componentType" : 5126, "count" : 1230, "type" : "VEC3", "max" : [0.9979264140129089, 0.9980131983757019, 0.9979485869407654], "min" : [-0.996753990650177, -0.9966278672218323, -0.9766278862953186], "name" : "NORMAL"}, {"bufferView" : 1, "byteOffset" : 24, "componentType" : 5126, "count" : 1230, "type" : "VEC2", "max" : [0.8810955286026001, -0.33179500699043274], "min" : [0.11304499953985214, -0.8810940980911255], "name" : "TEXCOORD_0"}], "asset" : {"generator" : "Aspose.3D 21.5.2", "version" : "2.0"}, "buffers" : [{"uri" : "data:application/octet-stream;base64,", "byteLength" : 46112}], "bufferViews" : [{"buffer" : 0, "byteOffset" : 0, "byteLength" : 2712, "target" : 34963}, {"buffer" : 0, "byteOffset" : 2716, "byteLength" : 43392, "byteStride" : 32, "target" : 34962}], "materials" : [{"pbrMetallicRoughness" : {"baseColorFactor" : [0.64, 0.64, 0.64, 1], "metallicFactor" : 0, "roughnessFactor" : 0}, "emissiveFactor" : [0, 0, 0], "alphaMode" : "OPAQUE", "doubleSided" : false}], "meshes" : [{"primitives" : [{"attributes" : {"POSITION" : 1, "NORMAL" : 2, "TEXCOORD_0" : 3}, "indices" : 0, "material" : 0, "mode" : 4}]}], "nodes" : [{"matrix" : [1, 0, 0, 0, 0, -4.37114E-08, 1, 0, 0, -1, -4.37114E-08, 0, 0, 0, 0, 1], "mesh" : 0, "name" : "Tree_Type3_04_mesh"}], "scene" : 0, "scenes" : [{"nodes" : [0]}]}