{"accessors" : [{"bufferView" : 0, "byteOffset" : 0, "componentType" : 5123, "count" : 468, "type" : "SCALAR", "max" : [251], "min" : [0]}, {"bufferView" : 1, "byteOffset" : 0, "componentType" : 5126, "count" : 252, "type" : "VEC3", "max" : [0.9381201267242432, 1.05874502658844, 1.0325560569763184], "min" : [-0.8549185991287231, -0.19830110669136047, -0.7159944772720337], "name" : "POSITION"}, {"bufferView" : 1, "byteOffset" : 12, "componentType" : 5126, "count" : 252, "type" : "VEC3", "max" : [0.9449959993362427, 0.9831556081771851, 0.9875589609146118], "min" : [-0.9991543889045715, -0.9885870218276978, -0.9962353110313416], "name" : "NORMAL"}, {"bufferView" : 1, "byteOffset" : 24, "componentType" : 5126, "count" : 252, "type" : "VEC2", "max" : [0.7780954837799072, -0.22190450131893158], "min" : [0.20801560580730438, -0.7734658122062683], "name" : "TEXCOORD_0"}], "asset" : {"generator" : "Aspose.3D 21.5.2", "version" : "2.0"}, "buffers" : [{"uri" : "data:application/octet-stream;base64,", "byteLength" : 15920}], "bufferViews" : [{"buffer" : 0, "byteOffset" : 0, "byteLength" : 936, "target" : 34963}, {"buffer" : 0, "byteOffset" : 940, "byteLength" : 14976, "byteStride" : 32, "target" : 34962}], "materials" : [{"pbrMetallicRoughness" : {"baseColorFactor" : [0.64, 0.64, 0.64, 1], "metallicFactor" : 0, "roughnessFactor" : 0}, "emissiveFactor" : [0, 0, 0], "alphaMode" : "OPAQUE", "doubleSided" : false}], "meshes" : [{"primitives" : [{"attributes" : {"POSITION" : 1, "NORMAL" : 2, "TEXCOORD_0" : 3}, "indices" : 0, "material" : 0, "mode" : 4}]}], "nodes" : [{"matrix" : [1, 0, 0, 0, 0, -4.37114E-08, 1, 0, 0, -1, -4.37114E-08, 0, 0, 0, 0, 1], "mesh" : 0, "name" : "Rock_Type2_01_mesh"}], "scene" : 0, "scenes" : [{"nodes" : [0]}]}