{"accessors" : [{"bufferView" : 0, "byteOffset" : 0, "componentType" : 5123, "count" : 666, "type" : "SCALAR", "max" : [479], "min" : [0]}, {"bufferView" : 1, "byteOffset" : 0, "componentType" : 5126, "count" : 480, "type" : "VEC3", "max" : [1.4328500032424927, 1.0029350519180298, 0.9849141240119934], "min" : [-1.4370980262756348, -0.05217123031616211, -0.7324414253234863], "name" : "POSITION"}, {"bufferView" : 1, "byteOffset" : 12, "componentType" : 5126, "count" : 480, "type" : "VEC3", "max" : [0.999338686466217, 1.0000044107437134, 0.9914144277572632], "min" : [-0.9857522249221802, -1.0000044107437134, -0.9931755661964417], "name" : "NORMAL"}, {"bufferView" : 1, "byteOffset" : 24, "componentType" : 5126, "count" : 480, "type" : "VEC2", "max" : [0.7496603727340698, -0.2247665971517563], "min" : [0.2221384048461914, -0.7837647199630737], "name" : "TEXCOORD_0"}], "asset" : {"generator" : "Aspose.3D 21.5.2", "version" : "2.0"}, "buffers" : [{"uri" : "data:application/octet-stream;base64,", "byteLength" : 22652}], "bufferViews" : [{"buffer" : 0, "byteOffset" : 0, "byteLength" : 1332, "target" : 34963}, {"buffer" : 0, "byteOffset" : 1336, "byteLength" : 21312, "byteStride" : 32, "target" : 34962}], "materials" : [{"pbrMetallicRoughness" : {"baseColorFactor" : [0.64, 0.64, 0.64, 1], "metallicFactor" : 0, "roughnessFactor" : 0}, "emissiveFactor" : [0, 0, 0], "alphaMode" : "OPAQUE", "doubleSided" : false}], "meshes" : [{"primitives" : [{"attributes" : {"POSITION" : 1, "NORMAL" : 2, "TEXCOORD_0" : 3}, "indices" : 0, "material" : 0, "mode" : 4}]}], "nodes" : [{"matrix" : [1, 0, 0, 0, 0, -4.37114E-08, 1, 0, 0, -1, -4.37114E-08, 0, 0, 0, 0, 1], "mesh" : 0, "name" : "Rock_Type1_01_mesh"}], "scene" : 0, "scenes" : [{"nodes" : [0]}]}