{"accessors" : [{"bufferView" : 0, "byteOffset" : 0, "componentType" : 5123, "count" : 120, "type" : "SCALAR", "max" : [79], "min" : [0]}, {"bufferView" : 1, "byteOffset" : 0, "componentType" : 5126, "count" : 80, "type" : "VEC3", "max" : [0.5810607075691223, 0.8755959272384644, 0.416220098733902], "min" : [-0.5995215773582458, 0.04050730913877487, -0.4947378933429718], "name" : "POSITION"}, {"bufferView" : 1, "byteOffset" : 12, "componentType" : 5126, "count" : 80, "type" : "VEC3", "max" : [1.0000044107437134, 0.999888002872467, 0.9865162372589111], "min" : [-1.0000044107437134, -1.0000044107437134, -1.0000044107437134], "name" : "NORMAL"}, {"bufferView" : 1, "byteOffset" : 24, "componentType" : 5126, "count" : 80, "type" : "VEC2", "max" : [0.25372621417045593, -0.24236759543418884], "min" : [0.17205509543418884, -0.7576323747634888], "name" : "TEXCOORD_0"}], "asset" : {"generator" : "Aspose.3D 21.5.2", "version" : "2.0"}, "buffers" : [{"uri" : "data:application/octet-stream;base64,", "byteLength" : 4088}], "bufferViews" : [{"buffer" : 0, "byteOffset" : 0, "byteLength" : 240, "target" : 34963}, {"buffer" : 0, "byteOffset" : 244, "byteLength" : 3840, "byteStride" : 32, "target" : 34962}], "materials" : [{"pbrMetallicRoughness" : {"baseColorFactor" : [0.64, 0.64, 0.64, 1], "metallicFactor" : 0, "roughnessFactor" : 0}, "emissiveFactor" : [0, 0, 0], "alphaMode" : "OPAQUE", "doubleSided" : false}], "meshes" : [{"primitives" : [{"attributes" : {"POSITION" : 1, "NORMAL" : 2, "TEXCOORD_0" : 3}, "indices" : 0, "material" : 0, "mode" : 4}]}], "nodes" : [{"matrix" : [1, 0, 0, 0, 0, -4.37114E-08, 1, 0, 0, -1, -4.37114E-08, 0, 0, 0, 0, 1], "mesh" : 0, "name" : "Rock_Type5_04_mesh"}], "scene" : 0, "scenes" : [{"nodes" : [0]}]}