{"accessors" : [{"bufferView" : 0, "byteOffset" : 0, "componentType" : 5123, "count" : 1104, "type" : "SCALAR", "max" : [763], "min" : [0]}, {"bufferView" : 1, "byteOffset" : 0, "componentType" : 5126, "count" : 764, "type" : "VEC3", "max" : [0.9098544716835022, 1.520738959312439, 1.4293149709701538], "min" : [-1.0113049745559692, -0.02934383973479271, -0.9740778207778931], "name" : "POSITION"}, {"bufferView" : 1, "byteOffset" : 12, "componentType" : 5126, "count" : 764, "type" : "VEC3", "max" : [0.9915645718574524, 1.0000044107437134, 0.9988359808921814], "min" : [-0.9996029138565063, -1.0000044107437134, -0.9956330060958862], "name" : "NORMAL"}, {"bufferView" : 1, "byteOffset" : 24, "componentType" : 5126, "count" : 764, "type" : "VEC2", "max" : [0.7524871826171875, -0.19658690690994263], "min" : [0.18732759356498718, -0.7941539287567139], "name" : "TEXCOORD_0"}], "asset" : {"generator" : "Aspose.3D 21.5.2", "version" : "2.0"}, "buffers" : [{"uri" : "data:application/octet-stream;base64,", "byteLength" : 37544}], "bufferViews" : [{"buffer" : 0, "byteOffset" : 0, "byteLength" : 2208, "target" : 34963}, {"buffer" : 0, "byteOffset" : 2212, "byteLength" : 35328, "byteStride" : 32, "target" : 34962}], "materials" : [{"pbrMetallicRoughness" : {"baseColorFactor" : [0.64, 0.64, 0.64, 1], "metallicFactor" : 0, "roughnessFactor" : 0}, "emissiveFactor" : [0, 0, 0], "alphaMode" : "OPAQUE", "doubleSided" : false}], "meshes" : [{"primitives" : [{"attributes" : {"POSITION" : 1, "NORMAL" : 2, "TEXCOORD_0" : 3}, "indices" : 0, "material" : 0, "mode" : 4}]}], "nodes" : [{"matrix" : [0.9999999, 0, 0, 0, 0, -4.37114E-08, 1, 0, 0, -1, -4.37114E-08, 0, 0, 0, 0, 1], "mesh" : 0, "name" : "Rock_Type1_02_mesh"}], "scene" : 0, "scenes" : [{"nodes" : [0]}]}