{"accessors" : [{"bufferView" : 0, "byteOffset" : 0, "componentType" : 5123, "count" : 642, "type" : "SCALAR", "max" : [427], "min" : [0]}, {"bufferView" : 1, "byteOffset" : 0, "componentType" : 5126, "count" : 428, "type" : "VEC3", "max" : [1.1774719953536987, 1.9286149740219116, 1.39969801902771], "min" : [-1.1213300228118896, -0.17399220168590546, -1.1708719730377197], "name" : "POSITION"}, {"bufferView" : 1, "byteOffset" : 12, "componentType" : 5126, "count" : 428, "type" : "VEC3", "max" : [0.985223650932312, 0.992742657661438, 0.9869071245193481], "min" : [-0.9999945759773254, -1.0000044107437134, -0.9915881156921387], "name" : "NORMAL"}, {"bufferView" : 1, "byteOffset" : 24, "componentType" : 5126, "count" : 428, "type" : "VEC2", "max" : [0.73675137758255, -0.20465479791164398], "min" : [0.18902979791164398, -0.7797201871871948], "name" : "TEXCOORD_0"}], "asset" : {"generator" : "Aspose.3D 21.5.2", "version" : "2.0"}, "buffers" : [{"uri" : "data:application/octet-stream;base64,", "byteLength" : 21836}], "bufferViews" : [{"buffer" : 0, "byteOffset" : 0, "byteLength" : 1284, "target" : 34963}, {"buffer" : 0, "byteOffset" : 1288, "byteLength" : 20544, "byteStride" : 32, "target" : 34962}], "materials" : [{"pbrMetallicRoughness" : {"baseColorFactor" : [0.64, 0.64, 0.64, 1], "metallicFactor" : 0, "roughnessFactor" : 0}, "emissiveFactor" : [0, 0, 0], "alphaMode" : "OPAQUE", "doubleSided" : false}], "meshes" : [{"primitives" : [{"attributes" : {"POSITION" : 1, "NORMAL" : 2, "TEXCOORD_0" : 3}, "indices" : 0, "material" : 0, "mode" : 4}]}], "nodes" : [{"matrix" : [1, 0, 0, 0, 0, -4.37114E-08, 1, 0, 0, -1, -4.37114E-08, 0, 0, 0, 0, 1], "mesh" : 0, "name" : "Rock_Type3_02_mesh"}], "scene" : 0, "scenes" : [{"nodes" : [0]}]}