{"accessors" : [{"bufferView" : 0, "byteOffset" : 0, "componentType" : 5123, "count" : 636, "type" : "SCALAR", "max" : [419], "min" : [0]}, {"bufferView" : 1, "byteOffset" : 0, "componentType" : 5126, "count" : 420, "type" : "VEC3", "max" : [0.9180173277854919, 1.1742490530014038, 0.7524111270904541], "min" : [-0.952065110206604, -0.09176409244537354, -0.8224372863769531], "name" : "POSITION"}, {"bufferView" : 1, "byteOffset" : 12, "componentType" : 5126, "count" : 420, "type" : "VEC3", "max" : [0.9991024136543274, 1.0000044107437134, 0.9961395859718323], "min" : [-0.9945537447929382, -1.0000044107437134, -0.9965807795524597], "name" : "NORMAL"}, {"bufferView" : 1, "byteOffset" : 24, "componentType" : 5126, "count" : 420, "type" : "VEC2", "max" : [0.8024591207504272, -0.18191580474376678], "min" : [0.18972830474376678, -0.7907403707504272], "name" : "TEXCOORD_0"}], "asset" : {"generator" : "Aspose.3D 21.5.2", "version" : "2.0"}, "buffers" : [{"uri" : "data:application/octet-stream;base64,", "byteLength" : 21632}], "bufferViews" : [{"buffer" : 0, "byteOffset" : 0, "byteLength" : 1272, "target" : 34963}, {"buffer" : 0, "byteOffset" : 1276, "byteLength" : 20352, "byteStride" : 32, "target" : 34962}], "materials" : [{"pbrMetallicRoughness" : {"baseColorFactor" : [0.64, 0.64, 0.64, 1], "metallicFactor" : 0, "roughnessFactor" : 0}, "emissiveFactor" : [0, 0, 0], "alphaMode" : "OPAQUE", "doubleSided" : false}], "meshes" : [{"primitives" : [{"attributes" : {"POSITION" : 1, "NORMAL" : 2, "TEXCOORD_0" : 3}, "indices" : 0, "material" : 0, "mode" : 4}]}], "nodes" : [{"matrix" : [1, 0, 0, 0, 0, -4.37114E-08, 1, 0, 0, -1, -4.37114E-08, 0, 0, 0, 0, 1], "mesh" : 0, "name" : "Rock_Type6_01_mesh"}], "scene" : 0, "scenes" : [{"nodes" : [0]}]}